<svg preserveAspectRatio="none" width="100%" height="100%" overflow="visible" style="display: block;" viewBox="0 0 29.5303 133" fill="none" xmlns="http://www.w3.org/2000/svg">
<path id="Union" d="M5.03613 6.40918H24.4941V0H29.5303V133H24.4941V124.988H5.03613V133H0V0H5.03613V6.40918ZM5.03613 110.795V119.952H24.4941V110.795H5.03613ZM5.03613 96.6025V105.759H24.4941V96.6025H5.03613ZM5.03613 82.4102V91.5664H24.4941V82.4102H5.03613ZM5.03613 68.2168V77.374H24.4941V68.2168H5.03613ZM5.03613 54.0244V63.1807H24.4941V54.0244H5.03613ZM5.03613 39.8311V48.9883H24.4941V39.8311H5.03613ZM5.03613 25.6387V34.7949H24.4941V25.6387H5.03613ZM5.03613 11.4453V20.6025H24.4941V11.4453H5.03613Z" fill="var(--fill-0, #FFDE33)"/>
</svg>
