<svg preserveAspectRatio="none" width="100%" height="100%" overflow="visible" style="display: block;" viewBox="0 0 29.752 134" fill="none" xmlns="http://www.w3.org/2000/svg">
<path id="Union" d="M5.07422 6.45801H24.6787V0H29.752V134H24.6787V125.928H5.07422V134H0V0H5.07422V6.45801ZM5.07422 111.628V120.854H24.6787V111.628H5.07422ZM5.07422 97.3291V106.555H24.6787V97.3291H5.07422ZM5.07422 83.0293V92.2549H24.6787V83.0293H5.07422ZM5.07422 68.7295V77.9551H24.6787V68.7295H5.07422ZM5.07422 54.4307V63.6562H24.6787V54.4307H5.07422ZM5.07422 40.1309V49.3564H24.6787V40.1309H5.07422ZM5.07422 25.8311V35.0566H24.6787V25.8311H5.07422ZM5.07422 11.5322V20.7568H24.6787V11.5322H5.07422Z" fill="var(--fill-0, #FFDE33)"/>
</svg>
