<svg preserveAspectRatio="none" width="100%" height="100%" overflow="visible" style="display: block;" viewBox="0 0 315 80" fill="none" xmlns="http://www.w3.org/2000/svg">
<g id="Vector">
<path d="M0 79.096V0H18.2242V64.1808H57.7099L83.8088 79.096H0Z" fill="var(--fill-0, black)"/>
<path d="M83.8088 79.096C77.3591 79.096 71.6218 77.7401 66.597 75.0282C61.6473 72.3164 57.7099 68.6252 54.7851 63.9548C51.9352 59.209 50.5102 53.823 50.5102 47.7966C50.5102 41.6949 51.9352 36.3089 54.7851 31.6384C57.7099 26.8927 61.6473 23.2015 66.597 20.565C71.6218 17.8531 77.3591 16.4972 83.8088 16.4972C90.1835 16.4972 95.8832 17.8531 100.908 20.565C105.933 23.2015 109.87 26.855 112.72 31.5254C115.57 36.1959 116.995 41.6196 116.995 47.7966C116.995 53.823 115.57 59.209 112.72 63.9548C109.87 68.6252 105.933 72.3164 100.908 75.0282C95.8832 77.7401 90.1835 79.096 83.8088 79.096ZM83.8088 64.6328C86.7336 64.6328 89.3585 63.9548 91.6834 62.5989C94.0083 61.2429 95.8457 59.322 97.1957 56.8362C98.5456 54.275 99.2206 51.2618 99.2206 47.7966C99.2206 44.2561 98.5456 41.2429 97.1957 38.7571C95.8457 36.2712 94.0083 34.3503 91.6834 32.9944C89.3585 31.6384 86.7336 30.9605 83.8088 30.9605C80.8839 30.9605 78.259 31.6384 75.9341 32.9944C73.6092 34.3503 71.7343 36.2712 70.3094 38.7571C68.9594 41.2429 68.2845 44.2561 68.2845 47.7966C68.2845 51.2618 68.9594 54.275 70.3094 56.8362C71.7343 59.322 73.6092 61.2429 75.9341 62.5989C78.259 63.9548 80.8839 64.6328 83.8088 64.6328Z" fill="var(--fill-0, black)"/>
<path d="M142.067 80C137.042 80 132.543 79.0207 128.568 77.0621C124.668 75.1036 121.631 72.1281 119.456 68.1356C117.281 64.0678 116.193 58.9077 116.193 52.6554V18.3051H133.742V50.0565C133.742 55.1036 134.792 58.8324 136.892 61.2429C139.067 63.5782 142.105 64.7458 146.004 64.7458C148.704 64.7458 151.104 64.1808 153.204 63.0508C155.304 61.8456 156.954 60.0377 158.154 57.6271C159.354 55.1412 159.954 52.0527 159.954 48.3616V18.3051H177.503V79.096H160.854V62.3729L163.891 67.2316C161.866 71.4501 158.866 74.6516 154.892 76.8362C150.992 78.9454 146.717 80 142.067 80Z" fill="var(--fill-0, black)"/>
<path d="M206.316 80C199.191 80 193.641 78.1921 189.667 74.5763C185.692 70.8851 183.704 65.4237 183.704 58.1921V4.85876H201.254V57.9661C201.254 60.5273 201.929 62.5235 203.278 63.9548C204.628 65.3107 206.466 65.9887 208.791 65.9887C211.566 65.9887 213.928 65.2354 215.878 63.7288L220.603 76.1582C218.803 77.4388 216.628 78.4181 214.078 79.096C211.603 79.6987 209.016 80 206.316 80ZM174.367 33.2203V18.3051H216.328V25.7627V33.2203H174.367Z" fill="var(--fill-0, black)"/>
<path d="M248.515 80C241.616 80 235.541 78.6441 230.291 75.9322C225.117 73.2203 221.104 69.5292 218.254 64.8588C215.404 60.113 213.98 54.7269 213.98 48.7006C213.98 42.5989 215.367 37.2128 218.142 32.5424C220.992 27.7966 224.854 24.1055 229.729 21.4689C234.604 18.7571 240.116 17.4011 246.266 17.4011C252.19 17.4011 257.515 18.6817 262.24 21.2429C267.04 23.7288 270.827 27.3446 273.602 32.0904C276.377 36.7608 277.764 42.3729 277.764 48.9266C277.764 49.6045 277.727 50.3955 277.652 51.2994C277.577 52.1281 277.502 52.919 277.427 53.6723H228.266V43.3898H268.202L261.452 46.4407C261.452 43.2768 260.815 40.5273 259.54 38.1921C258.265 35.8569 256.503 34.049 254.253 32.7684C252.003 31.4124 249.378 30.7345 246.378 30.7345C243.378 30.7345 240.716 31.4124 238.391 32.7684C236.141 34.049 234.379 35.8945 233.104 38.3051C231.829 40.6403 231.191 43.4275 231.191 46.6667V49.3785C231.191 52.693 231.904 55.6309 233.329 58.1921C234.829 60.678 236.891 62.5989 239.516 63.9548C242.216 65.2354 245.366 65.8757 248.965 65.8757C252.19 65.8757 255.003 65.3861 257.403 64.4068C259.877 63.4275 262.127 61.9586 264.152 60L273.489 70.1695C270.715 73.3333 267.227 75.7815 263.027 77.5141C258.828 79.1714 253.99 80 248.515 80Z" fill="var(--fill-0, black)"/>
<path d="M277.427 79.096V18.3051H294.188V35.4802L291.826 30.5085C293.626 26.2147 296.513 22.9755 300.488 20.791C304.463 18.5311 309.3 17.4011 315 17.4011V33.6723C314.25 33.597 313.575 33.5593 312.975 33.5593C312.375 33.484 311.738 33.4463 311.063 33.4463C306.263 33.4463 302.363 34.8399 299.363 37.6271C296.438 40.339 294.976 44.5951 294.976 50.3955V79.096H277.427Z" fill="var(--fill-0, black)"/>
</g>
</svg>
