<svg preserveAspectRatio="none" width="100%" height="100%" overflow="visible" style="display: block;" viewBox="0 0 89 993" fill="none" xmlns="http://www.w3.org/2000/svg">
<g id="Group 1">
<line id="Line 1" x1="44.5001" y1="4.37114e-08" x2="44.5" y2="993" stroke="url(#paint0_linear_5001_6)" stroke-width="2"/>
<g id="Frame 34">
<g id="Vector" filter="url(#filter0_d_5001_6)">
<path d="M44.5 107L48.46 117.04L58.5 121L48.46 124.96L44.5 135L40.54 124.96L30.5 121L40.54 117.04L44.5 107Z" fill="var(--fill-0, black)"/>
<path d="M44.5 107L48.46 117.04L58.5 121L48.46 124.96L44.5 135L40.54 124.96L30.5 121L40.54 117.04L44.5 107Z" stroke="var(--stroke-0, #FFD600)" stroke-linecap="square" stroke-linejoin="round"/>
</g>
<g id="Vector_2" filter="url(#filter1_d_5001_6)">
<path d="M44.5 361.667L48.46 371.707L58.5 375.667L48.46 379.627L44.5 389.667L40.54 379.627L30.5 375.667L40.54 371.707L44.5 361.667Z" fill="var(--fill-0, black)"/>
<path d="M44.5 361.667L48.46 371.707L58.5 375.667L48.46 379.627L44.5 389.667L40.54 379.627L30.5 375.667L40.54 371.707L44.5 361.667Z" stroke="var(--stroke-0, #FFD600)" stroke-linecap="square" stroke-linejoin="round"/>
</g>
<g id="Vector_3" filter="url(#filter2_d_5001_6)">
<path d="M44.5 616.333L48.46 626.373L58.5 630.333L48.46 634.293L44.5 644.333L40.54 634.293L30.5 630.333L40.54 626.373L44.5 616.333Z" fill="var(--fill-0, black)"/>
<path d="M44.5 616.333L48.46 626.373L58.5 630.333L48.46 634.293L44.5 644.333L40.54 634.293L30.5 630.333L40.54 626.373L44.5 616.333Z" stroke="var(--stroke-0, #FFD600)" stroke-linecap="square" stroke-linejoin="round"/>
</g>
<g id="Vector_4" filter="url(#filter3_d_5001_6)">
<path d="M44.5 871L48.46 881.04L58.5 885L48.46 888.96L44.5 899L40.54 888.96L30.5 885L40.54 881.04L44.5 871Z" fill="var(--fill-0, black)"/>
<path d="M44.5 871L48.46 881.04L58.5 885L48.46 888.96L44.5 899L40.54 888.96L30.5 885L40.54 881.04L44.5 871Z" stroke="var(--stroke-0, #FFD600)" stroke-linecap="square" stroke-linejoin="round"/>
</g>
</g>
</g>
<defs>
<filter id="filter0_d_5001_6" x="0" y="76.5" width="89" height="89" filterUnits="userSpaceOnUse" color-interpolation-filters="sRGB">
<feFlood flood-opacity="0" result="BackgroundImageFix"/>
<feColorMatrix in="SourceAlpha" type="matrix" values="0 0 0 0 0 0 0 0 0 0 0 0 0 0 0 0 0 0 127 0" result="hardAlpha"/>
<feOffset/>
<feGaussianBlur stdDeviation="15"/>
<feComposite in2="hardAlpha" operator="out"/>
<feColorMatrix type="matrix" values="0 0 0 0 0.984314 0 0 0 0 0.886275 0 0 0 0 0.27451 0 0 0 1 0"/>
<feBlend mode="normal" in2="BackgroundImageFix" result="effect1_dropShadow_5001_6"/>
<feBlend mode="normal" in="SourceGraphic" in2="effect1_dropShadow_5001_6" result="shape"/>
</filter>
<filter id="filter1_d_5001_6" x="0" y="331.167" width="89" height="89" filterUnits="userSpaceOnUse" color-interpolation-filters="sRGB">
<feFlood flood-opacity="0" result="BackgroundImageFix"/>
<feColorMatrix in="SourceAlpha" type="matrix" values="0 0 0 0 0 0 0 0 0 0 0 0 0 0 0 0 0 0 127 0" result="hardAlpha"/>
<feOffset/>
<feGaussianBlur stdDeviation="15"/>
<feComposite in2="hardAlpha" operator="out"/>
<feColorMatrix type="matrix" values="0 0 0 0 0.984314 0 0 0 0 0.886275 0 0 0 0 0.27451 0 0 0 1 0"/>
<feBlend mode="normal" in2="BackgroundImageFix" result="effect1_dropShadow_5001_6"/>
<feBlend mode="normal" in="SourceGraphic" in2="effect1_dropShadow_5001_6" result="shape"/>
</filter>
<filter id="filter2_d_5001_6" x="0" y="585.833" width="89" height="89" filterUnits="userSpaceOnUse" color-interpolation-filters="sRGB">
<feFlood flood-opacity="0" result="BackgroundImageFix"/>
<feColorMatrix in="SourceAlpha" type="matrix" values="0 0 0 0 0 0 0 0 0 0 0 0 0 0 0 0 0 0 127 0" result="hardAlpha"/>
<feOffset/>
<feGaussianBlur stdDeviation="15"/>
<feComposite in2="hardAlpha" operator="out"/>
<feColorMatrix type="matrix" values="0 0 0 0 0.984314 0 0 0 0 0.886275 0 0 0 0 0.27451 0 0 0 1 0"/>
<feBlend mode="normal" in2="BackgroundImageFix" result="effect1_dropShadow_5001_6"/>
<feBlend mode="normal" in="SourceGraphic" in2="effect1_dropShadow_5001_6" result="shape"/>
</filter>
<filter id="filter3_d_5001_6" x="0" y="840.5" width="89" height="89" filterUnits="userSpaceOnUse" color-interpolation-filters="sRGB">
<feFlood flood-opacity="0" result="BackgroundImageFix"/>
<feColorMatrix in="SourceAlpha" type="matrix" values="0 0 0 0 0 0 0 0 0 0 0 0 0 0 0 0 0 0 127 0" result="hardAlpha"/>
<feOffset/>
<feGaussianBlur stdDeviation="15"/>
<feComposite in2="hardAlpha" operator="out"/>
<feColorMatrix type="matrix" values="0 0 0 0 0.984314 0 0 0 0 0.886275 0 0 0 0 0.27451 0 0 0 1 0"/>
<feBlend mode="normal" in2="BackgroundImageFix" result="effect1_dropShadow_5001_6"/>
<feBlend mode="normal" in="SourceGraphic" in2="effect1_dropShadow_5001_6" result="shape"/>
</filter>
<linearGradient id="paint0_linear_5001_6" x1="43.0001" y1="-2.18557e-08" x2="43" y2="993" gradientUnits="userSpaceOnUse">
<stop stop-color="#FFD600" stop-opacity="0.2"/>
<stop offset="0.216346" stop-color="#FFD600" stop-opacity="0.35"/>
<stop offset="0.394231" stop-color="#FFD600" stop-opacity="0.5"/>
<stop offset="0.682692" stop-color="#FFD600"/>
</linearGradient>
</defs>
</svg>
